<?xml version="1.0" encoding="utf-8"?>
<!-- Generator: Adobe Illustrator 18.1.1, SVG Export Plug-In . SVG Version: 6.00 Build 0)  -->
<svg version="1.1" id="Capa_1" xmlns="http://www.w3.org/2000/svg" xmlns:xlink="http://www.w3.org/1999/xlink" x="0px" y="0px"
	 viewBox="0 0 500 500" enable-background="new 0 0 500 500" xml:space="preserve">
<path fill="none" stroke="#000000" stroke-miterlimit="10" d="M198.3,292.3c0,90.2,22.4,163.1,50,163.1"/>
<path fill="none" stroke="#000000" stroke-miterlimit="10" d="M189.2,320.2c0,74.7,26.5,135.2,59.1,135.2"/>
<path fill="none" stroke="#000000" stroke-miterlimit="10" d="M253.8,330.8c0,68.9-2.4,124.6-5.5,124.6"/>
<path fill="none" stroke="#000000" stroke-miterlimit="10" d="M309.8,315.8c0,77.2-27.5,139.6-61.4,139.6"/>
<path fill="none" stroke="#000000" stroke-miterlimit="10" d="M279.1,298.6c0,86.7-13.7,156.8-30.7,156.8"/>
<g>
	<g>
		<path fill="#81398A" d="M297.2,130.7c1,41-23.2,74.9-54.2,75.7s-56.9-31.8-57.9-72.8c-1-41,23.2-74.9,54.2-75.7
			S296.1,89.7,297.2,130.7z"/>
		<path fill="#81398A" d="M233.8,202.8c-2,3.6,0,9.4,2.6,10.3c0.7,0.2,0.8-0.1,3.4-0.1c3,0,3.7,0.4,4.7-0.1c0.7-0.4,1.2-1,2-3.2
			c1.5-4.2,2.4-6.6,1.4-8.3C245.9,198.1,236.5,197.8,233.8,202.8z"/>
		<path fill="#81398A" d="M233.8,212.1c-0.4,1.5,0,3.5,1.2,4.2c1.2,0.7,2.2-0.7,5.2-0.9c2.8-0.2,3.6,0.9,5,0.1c1.8-1,2.6-4,1.7-4.8
			c-0.6-0.6-1.4,0.2-3.4,0.4c-4.1,0.3-6.1-2.6-8.2-1.4C234.2,210.3,233.9,211.6,233.8,212.1z"/>
	</g>
	<path fill="#9D649F" d="M225.8,66c-0.9-1-11.9,4.5-20,14.3c-11.4,14-13.2,31.6-11.8,32.2c0.3,0.1,0.6-0.4,9.8-14.8
		c4.2-6.5,6.3-9.9,8.8-13.3c1.6-2.3,3.5-4.8,6.1-8.3C225.2,67.3,226.1,66.3,225.8,66z"/>
	<path fill="#9D649F" d="M266.6,72.4c1-0.8,7,5.1,11.1,10.7c0.4,0.5,5.7,7.8,4.8,8.7c-0.9,0.8-6.6-3.5-10.7-8.9
		C268.5,78.7,265.7,73,266.6,72.4z"/>
</g>
<g>
	<g>
		<path fill="#3784C3" d="M339.7,184.5c-6.2,34.1-32.7,57.7-59.4,52.8c-26.6-4.9-43.2-36.5-37.1-70.6s32.7-57.7,59.4-52.8
			S345.8,150.4,339.7,184.5z"/>
		<path fill="#3784C3" d="M273.1,232.7c-2.3,2.7-1.6,7.8,0.5,9c0.6,0.3,0.7,0.1,2.9,0.5c2.5,0.5,3.1,1,4.1,0.7
			c0.6-0.2,1.2-0.6,2.3-2.3c2-3.2,3.2-5.1,2.6-6.6C284.3,231,276.2,229.1,273.1,232.7z"/>
		<path fill="#3784C3" d="M271.4,240.4c-0.6,1.1-0.6,2.9,0.3,3.7c0.9,0.8,2-0.2,4.6,0.2c2.4,0.3,2.9,1.4,4.2,1
			c1.7-0.5,2.9-2.8,2.3-3.7c-0.4-0.6-1.3-0.1-3-0.3c-3.6-0.5-4.8-3.2-6.8-2.6C272.1,239,271.6,240,271.4,240.4z"/>
	</g>
	<path fill="#62A7DC" d="M289.7,118.1c-0.6-1-10.9,1.6-19.5,8.3c-12.2,9.5-16.7,23.8-15.6,24.5c0.2,0.1,0.6-0.2,10.9-10.5
		c4.7-4.7,7.1-7,9.8-9.4c1.8-1.6,3.8-3.3,6.6-5.8C288.9,119.1,289.9,118.5,289.7,118.1z"/>
	<path fill="#62A7DC" d="M323.5,130.7c1-0.5,5.1,5.4,7.7,10.8c0.2,0.5,3.6,7.5,2.6,8.1c-0.9,0.5-5-4.1-7.6-9.3
		C324.1,136.3,322.6,131.2,323.5,130.7z"/>
</g>
<g>
	<g>
		<path fill="#C54842" d="M241.1,179.4c10.1,39.7-6,78.2-36,86c-30,7.8-62.5-18.1-72.6-57.8s6-78.2,36-86S231.1,139.7,241.1,179.4z"
			/>
		<path fill="#C54842" d="M195.4,264.1c-1.1,4,2.1,9.1,4.8,9.4c0.7,0.1,0.8-0.3,3.3-0.9c2.9-0.7,3.7-0.4,4.6-1.2
			c0.6-0.5,1-1.3,1.3-3.6c0.5-4.5,0.8-7-0.5-8.4C206.2,256.7,196.9,258.6,195.4,264.1z"/>
		<path fill="#C54842" d="M197.4,273.1c0,1.5,0.7,3.4,2.1,3.8c1.4,0.4,2-1.2,4.9-2.1c2.7-0.8,3.7,0.1,4.9-1c1.5-1.4,1.6-4.5,0.6-5.1
			c-0.7-0.4-1.3,0.5-3.2,1.1c-4,1.3-6.5-1.1-8.3,0.5C197.4,271.3,197.4,272.6,197.4,273.1z"/>
	</g>
	<path fill="#CD6E6F" d="M157.3,132.5c-1.1-0.8-10.6,7-16.3,18.5c-8,16.2-5.9,33.8-4.4,34c0.3,0,0.5-0.5,6.3-16.6
		c2.6-7.3,4-11.1,5.6-15c1.1-2.6,2.3-5.4,4.1-9.5C157,134,157.6,132.8,157.3,132.5z"/>
	<path fill="#CD6E6F" d="M198.4,129.5c0.8-1,7.9,3.3,13.2,7.9c0.5,0.4,7.3,6.3,6.6,7.4c-0.7,1-7.2-1.9-12.4-6.3
		C201.7,135.2,197.7,130.4,198.4,129.5z"/>
</g>
<g>
	<g>
		<path fill="#F4E145" d="M205.5,244.3c14.6,30.6,8.4,64.2-13.8,75.1c-22.2,10.9-52.1-5.2-66.7-35.8s-8.4-64.2,13.8-75.1
			S190.9,213.7,205.5,244.3z"/>
		<path fill="#F4E145" d="M183.8,319.8c-0.2,3.4,3.2,7.1,5.4,6.9c0.6-0.1,0.6-0.3,2.5-1.2c2.2-1,2.8-0.9,3.4-1.7
			c0.4-0.5,0.6-1.2,0.4-3.1c-0.3-3.7-0.5-5.8-1.8-6.7C191.1,312.2,184.1,315.1,183.8,319.8z"/>
		<path fill="#F4E145" d="M186.9,326.8c0.2,1.2,1.2,2.7,2.3,2.8c1.1,0.1,1.3-1.3,3.5-2.4c2-1.1,2.9-0.5,3.7-1.6
			c1-1.3,0.5-3.9-0.4-4.2c-0.6-0.2-1,0.6-2.4,1.4c-2.9,1.6-5.3,0.1-6.4,1.7C186.7,325.3,186.9,326.4,186.9,326.8z"/>
	</g>
	<path fill="#F6E877" d="M131.8,219.1c-1-0.5-7.1,7.3-9.7,17.4c-3.6,14.3,1.1,28.2,2.3,28.2c0.3,0,0.3-0.5,2.1-14.4
		c0.8-6.3,1.2-9.6,1.9-13c0.4-2.2,0.9-4.7,1.6-8.3C131.8,220.4,132.1,219.3,131.8,219.1z"/>
	<path fill="#F6E877" d="M163.6,210.5c0.5-0.9,6.8,1.5,11.7,4.4c0.4,0.3,6.8,4,6.4,5c-0.4,0.9-6-0.5-10.8-3.2
		C167.1,214.6,163.2,211.3,163.6,210.5z"/>
</g>
<g>
	<g>
		<path fill="#84B04D" d="M324.9,292.5c-9,35.3-38.1,58.2-65.2,51.2c-27-7-41.7-41.3-32.7-76.6c9-35.3,38.1-58.2,65.2-51.2
			C319.2,222.9,333.9,257.2,324.9,292.5z"/>
		<path fill="#84B04D" d="M252.6,338.4c-2.6,2.6-2.3,8-0.2,9.4c0.6,0.4,0.7,0.1,3,0.8c2.6,0.7,3.1,1.3,4.1,1.1
			c0.7-0.1,1.3-0.6,2.5-2.3c2.3-3.3,3.6-5.1,3.2-6.7C264.3,337.4,256.2,334.8,252.6,338.4z"/>
		<path fill="#84B04D" d="M250.4,346.3c-0.7,1.2-0.9,3,0,3.9c0.9,0.9,2.1-0.1,4.8,0.5c2.5,0.5,2.9,1.7,4.3,1.4
			c1.8-0.4,3.2-2.8,2.6-3.7c-0.4-0.6-1.3-0.2-3-0.5c-3.7-0.8-4.7-3.7-6.8-3.2C251.2,344.9,250.6,345.9,250.4,346.3z"/>
	</g>
	<path fill="#A5C37D" d="M278.6,219.5c-0.5-1.1-11.4,0.9-20.7,7.3c-13.3,9.1-19.1,23.7-18,24.6c0.2,0.2,0.6-0.2,12-10.2
		c5.2-4.6,7.8-6.9,10.8-9.2c1.9-1.5,4.1-3.2,7.3-5.6C277.7,220.5,278.7,219.8,278.6,219.5z"/>
	<path fill="#A5C37D" d="M312.4,235.1c1.1-0.4,4.8,6.1,7.1,11.9c0.2,0.5,3.1,8.1,2,8.6c-0.9,0.5-4.9-4.6-7.2-10.3
		C312.6,240.9,311.5,235.4,312.4,235.1z"/>
</g>
<g>
	<g>
		<path fill="#D88C30" d="M302.5,251.9c5.2,40.7-15.5,76.9-46.2,80.9s-59.8-25.7-65-66.4c-5.2-40.7,15.5-76.9,46.2-80.9
			S297.3,211.3,302.5,251.9z"/>
		<path fill="#D88C30" d="M246.8,330.2c-1.6,3.8,0.9,9.3,3.7,10c0.7,0.2,0.8-0.2,3.4-0.4c2.9-0.3,3.7,0,4.7-0.6
			c0.6-0.4,1.1-1.1,1.7-3.4c1.1-4.4,1.7-6.8,0.5-8.4C258.4,324.3,249,325,246.8,330.2z"/>
		<path fill="#D88C30" d="M247.7,339.5c-0.2,1.5,0.3,3.5,1.6,4.1c1.3,0.6,2.1-0.9,5.1-1.5c2.8-0.5,3.7,0.5,5-0.4
			c1.7-1.2,2.2-4.2,1.2-5c-0.6-0.5-1.4,0.3-3.4,0.7c-4.1,0.7-6.3-1.9-8.3-0.5C248,337.7,247.8,339,247.7,339.5z"/>
	</g>
	<path fill="#E2AC56" d="M225,195c-1-0.9-11.4,5.7-18.4,16.3c-10,15.1-9.9,32.8-8.5,33.2c0.3,0.1,0.6-0.5,8.2-15.7
		c3.5-6.9,5.3-10.5,7.4-14.2c1.4-2.4,3-5.1,5.2-8.9C224.5,196.4,225.3,195.3,225,195z"/>
	<path fill="#E2AC56" d="M266.2,197.1c0.9-0.9,7.5,4.3,12.1,9.5c0.4,0.5,6.5,7.2,5.6,8.2c-0.8,0.9-6.9-2.8-11.6-7.8
		C268.8,203.1,265.4,197.9,266.2,197.1z"/>
</g>
<g>
	<path fill="none" stroke="#000000" stroke-miterlimit="10" d="M275.6,272.6c-35.7,82.8-44,158.6-18.6,169.6"/>
	<path fill="none" stroke="#000000" stroke-miterlimit="10" d="M256.2,294.6c-29.6,68.6-29.2,134.7,0.8,147.6"/>
	<path fill="none" stroke="#000000" stroke-miterlimit="10" d="M311.3,330c-27.3,63.3-51.6,113.5-54.3,112.3"/>
	<path fill="none" stroke="#000000" stroke-miterlimit="10" d="M368.7,338.3c-30.5,70.9-80.5,117.4-111.7,103.9"/>
	<path fill="none" stroke="#000000" stroke-miterlimit="10" d="M347.2,310.4C312.9,390,272.6,449,257,442.2"/>
	<g>
		<g>
			<path fill="#81398A" d="M430.3,163.3c-15.3,38.1-51,59.6-79.7,48c-28.7-11.5-39.7-51.7-24.4-89.8c15.3-38.1,51-59.6,79.7-48
				S445.6,125.3,430.3,163.3z"/>
			<path fill="#81398A" d="M343.5,204.5c-3.3,2.6-3.7,8.6-1.7,10.5c0.6,0.5,0.8,0.2,3.2,1.3c2.7,1.2,3.2,1.9,4.4,1.8
				c0.8-0.1,1.5-0.4,3.1-2.2c3.1-3.3,4.8-5.2,4.5-7.1C356.6,204.9,348,201,343.5,204.5z"/>
			<path fill="#81398A" d="M339.8,213c-0.9,1.2-1.4,3.2-0.6,4.3c0.8,1.2,2.3,0.2,5.2,1.2c2.6,0.9,2.9,2.3,4.5,2.1
				c2-0.2,3.9-2.6,3.5-3.8c-0.3-0.7-1.4-0.4-3.3-1c-3.9-1.3-4.6-4.8-7-4.5C340.9,211.5,340.1,212.6,339.8,213z"/>
		</g>
		<path fill="#9D649F" d="M390.4,75.7c-0.4-1.3-12.7-0.6-24,5.3c-16,8.3-24.7,23.8-23.6,24.9c0.2,0.2,0.7-0.1,14.8-9.7
			c6.4-4.4,9.7-6.6,13.3-8.8c2.4-1.4,5.1-3,8.9-5.2C389.3,76.7,390.5,76.1,390.4,75.7z"/>
		<path fill="#9D649F" d="M425.3,97.7c1.2-0.3,4.4,7.4,6,14.2c0.1,0.6,2.2,9.5,0.9,9.9c-1.1,0.4-4.7-5.8-6.3-12.4
			C424.6,104.2,424.2,97.9,425.3,97.7z"/>
	</g>
	<g>
		<g>
			<path fill="#3784C3" d="M448,229.5c-19.1,28.9-52.9,40.1-75.4,25c-22.5-15-25.2-50.7-6.1-79.5c19.1-28.9,52.9-40.1,75.4-25
				S467.2,200.7,448,229.5z"/>
			<path fill="#3784C3" d="M367.8,247.5c-3.2,1.5-4.6,6.5-3.1,8.4c0.4,0.5,0.6,0.3,2.5,1.7c2.1,1.5,2.4,2.2,3.4,2.3
				c0.7,0.1,1.4-0.1,3-1.2c3.1-2.2,4.9-3.4,5-5C378.7,250.3,372.1,245.4,367.8,247.5z"/>
			<path fill="#3784C3" d="M363.2,253.9c-1,0.8-1.7,2.4-1.2,3.5c0.5,1.1,1.9,0.6,4.2,2c2.1,1.3,2.1,2.4,3.5,2.6
				c1.8,0.2,3.8-1.5,3.6-2.5c-0.1-0.7-1.1-0.6-2.6-1.5c-3.1-1.9-3.1-4.9-5.2-5.1C364.4,252.9,363.6,253.6,363.2,253.9z"/>
		</g>
		<path fill="#62A7DC" d="M428.4,148.8c-0.1-1.1-10.7-2.9-21.2-0.1c-15,3.9-24.8,15.2-24,16.3c0.2,0.2,0.6,0,14.2-5.3
			c6.2-2.4,9.3-3.7,12.7-4.8c2.2-0.7,4.8-1.5,8.4-2.7C427.3,149.4,428.4,149.2,428.4,148.8z"/>
		<path fill="#62A7DC" d="M454.4,173.8c1.1,0,2.5,7,2.8,13c0,0.5,0.3,8.3-0.8,8.4c-1,0.1-3-5.7-3.3-11.6
			C452.8,179.1,453.5,173.8,454.4,173.8z"/>
	</g>
	<g>
		<g>
			<path fill="#C54842" d="M359.6,185.9c-6.4,40.5-36.5,69.5-67.1,64.7c-30.6-4.7-50.2-41.3-43.8-81.8c6.4-40.5,36.5-69.5,67.1-64.7
				C346.4,108.8,366,145.4,359.6,185.9z"/>
			<path fill="#C54842" d="M284,245.5c-2.6,3.2-1.7,9.2,0.7,10.6c0.7,0.4,0.8,0.1,3.4,0.5c2.9,0.5,3.6,1.1,4.7,0.7
				c0.7-0.2,1.4-0.8,2.6-2.8c2.3-3.9,3.5-6.1,2.9-7.9C296.9,243,287.6,241.1,284,245.5z"/>
			<path fill="#C54842" d="M282.3,254.7c-0.6,1.4-0.7,3.4,0.4,4.4c1.1,0.9,2.3-0.3,5.3,0c2.8,0.3,3.4,1.5,4.9,1
				c2-0.7,3.3-3.5,2.6-4.4c-0.5-0.7-1.4-0.1-3.4-0.3c-4.1-0.4-5.6-3.6-7.8-2.8C283.1,253,282.5,254.2,282.3,254.7z"/>
		</g>
		<path fill="#CD6E6F" d="M301.1,109.7c-0.7-1.1-12.5,2.3-22.3,10.5c-13.8,11.7-18.8,28.7-17.5,29.5c0.3,0.2,0.7-0.3,12.3-12.8
			c5.3-5.7,8-8.6,11.1-11.5c2-1.9,4.3-4.1,7.5-7.1C300.2,110.9,301.3,110,301.1,109.7z"/>
		<path fill="#CD6E6F" d="M340.1,123.2c1.1-0.6,5.9,6.2,9,12.5c0.3,0.6,4.2,8.7,3.1,9.4c-1,0.6-5.8-4.6-8.9-10.7
			C340.8,129.7,339.1,123.7,340.1,123.2z"/>
	</g>
	<g>
		<g>
			<path fill="#F4E145" d="M301.2,231.4c1.3,33.9-17.7,62.3-42.4,63.5c-24.7,1.2-45.8-25.4-47.1-59.2s17.7-62.3,42.4-63.5
				C278.8,171,299.9,197.6,301.2,231.4z"/>
			<path fill="#F4E145" d="M251.4,292.1c-1.5,3,0.1,7.8,2.2,8.5c0.6,0.2,0.6-0.1,2.7-0.1c2.4,0,3,0.3,3.8-0.2c0.5-0.3,1-0.9,1.6-2.7
				c1.2-3.5,1.8-5.5,1-6.9C261,288,253.5,288,251.4,292.1z"/>
			<path fill="#F4E145" d="M251.5,299.8c-0.3,1.2,0,2.9,1,3.5c1,0.6,1.7-0.6,4.2-0.9c2.2-0.2,2.9,0.7,4,0c1.4-0.8,2-3.3,1.3-4
				c-0.5-0.5-1.1,0.2-2.7,0.3c-3.3,0.3-4.9-2-6.5-1C251.8,298.3,251.6,299.4,251.5,299.8z"/>
		</g>
		<path fill="#F6E877" d="M243.4,179.1c-0.7-0.8-9.5,3.9-15.8,12.2c-9,11.8-10.2,26.4-9,26.8c0.2,0.1,0.5-0.3,7.6-12.4
			c3.3-5.5,4.9-8.3,6.9-11.2c1.3-1.9,2.7-4,4.8-7C242.9,180.2,243.6,179.4,243.4,179.1z"/>
		<path fill="#F6E877" d="M276,183.7c0.8-0.7,5.6,4.1,9,8.7c0.3,0.4,4.7,6.4,3.9,7.1c-0.7,0.7-5.3-2.8-8.7-7.2
			C277.7,188.9,275.4,184.3,276,183.7z"/>
	</g>
	<g>
		<g>
			<path fill="#84B04D" d="M453.6,317.5c-22.2,28.9-58,38.4-80.1,21.2c-22.1-17.1-22-54.4,0.2-83.3s58-38.4,80.1-21.2
				C475.9,251.3,475.8,288.6,453.6,317.5z"/>
			<path fill="#84B04D" d="M369.1,331c-3.4,1.4-5.2,6.5-3.9,8.6c0.4,0.6,0.6,0.4,2.4,1.9c2.1,1.7,2.3,2.4,3.4,2.6
				c0.7,0.1,1.4,0,3.2-1.1c3.4-2.1,5.3-3.2,5.6-4.9C380.2,334.7,373.8,329.1,369.1,331z"/>
			<path fill="#84B04D" d="M363.9,337.4c-1.1,0.8-2,2.4-1.5,3.6c0.5,1.2,1.9,0.8,4.2,2.3c2.1,1.5,2,2.7,3.4,2.9
				c1.8,0.3,4-1.3,3.9-2.3c-0.1-0.7-1.1-0.7-2.6-1.7c-3.1-2.1-2.8-5.3-4.9-5.6C365.2,336.4,364.2,337.1,363.9,337.4z"/>
		</g>
		<path fill="#A5C37D" d="M439.9,232.1c0-1.2-10.8-3.7-21.9-1.5c-15.8,3.1-26.9,14.3-26.2,15.5c0.1,0.3,0.7,0.1,15.1-4.6
			c6.6-2.1,9.9-3.2,13.6-4.2c2.4-0.6,5.1-1.3,8.9-2.2C438.8,232.7,440,232.5,439.9,232.1z"/>
		<path fill="#A5C37D" d="M464.8,259.8c1.1,0,2,7.5,1.8,13.7c0,0.6-0.4,8.7-1.5,8.7c-1,0.1-2.6-6.2-2.5-12.3
			C462.7,265.2,463.9,259.8,464.8,259.8z"/>
	</g>
	<g>
		<g>
			<path fill="#D88C30" d="M387.2,276.8c-11.3,39.4-44.7,64.5-74.5,56c-29.8-8.5-44.8-47.3-33.4-86.7s44.7-64.5,74.5-56
				C383.6,198.6,398.6,237.4,387.2,276.8z"/>
			<path fill="#D88C30" d="M305.1,326.7c-3,2.9-2.8,9-0.6,10.6c0.6,0.4,0.8,0.2,3.3,0.9c2.8,0.9,3.4,1.5,4.5,1.3
				c0.8-0.1,1.5-0.6,2.9-2.5c2.7-3.6,4.2-5.6,3.8-7.5C318.1,325.8,309.2,322.7,305.1,326.7z"/>
			<path fill="#D88C30" d="M302.2,335.5c-0.8,1.3-1.1,3.3-0.2,4.4c1,1.1,2.3,0,5.3,0.7c2.7,0.6,3.2,1.9,4.7,1.6c2-0.4,3.6-3,3.1-4.1
				c-0.4-0.7-1.4-0.2-3.4-0.7c-4.1-0.9-5.1-4.3-7.4-3.8C303.2,333.9,302.5,335.1,302.2,335.5z"/>
		</g>
		<path fill="#E2AC56" d="M338.5,193.8c-0.5-1.2-12.7,0.7-23.3,7.7c-15.1,9.9-22.1,26.2-20.9,27.2c0.3,0.2,0.7-0.2,13.8-11.2
			c5.9-5,9-7.5,12.4-10.1c2.2-1.7,4.7-3.5,8.3-6.1C337.6,194.9,338.7,194.2,338.5,193.8z"/>
		<path fill="#E2AC56" d="M375.5,212c1.2-0.4,5.1,6.9,7.4,13.5c0.2,0.6,3.1,9.2,1.9,9.7c-1,0.5-5.2-5.3-7.6-11.7
			C375.5,218.6,374.5,212.4,375.5,212z"/>
	</g>
</g>
<path fill="none" stroke="#000000" stroke-miterlimit="10" d="M142.8,340c26.6,86.1,69.6,149.2,96,141"/>
<path fill="none" stroke="#000000" stroke-miterlimit="10" d="M142.3,369.3c22.1,71.4,65.2,121.4,96.5,111.7"/>
<path fill="none" stroke="#000000" stroke-miterlimit="10" d="M207.2,360.3c20.4,65.8,34.5,119.8,31.6,120.7"/>
<path fill="none" stroke="#000000" stroke-miterlimit="10" d="M256.2,329.5c22.8,73.7,15,141.5-17.4,151.5"/>
<path fill="none" stroke="#000000" stroke-miterlimit="10" d="M221.8,322.1c25.6,82.8,33.2,153.9,17,158.9"/>
<g>
	<g>
		<path fill="#81398A" d="M189.4,156.3c13.1,38.9-0.1,78.4-29.4,88.3c-29.3,9.9-63.7-13.6-76.8-52.4s0.1-78.4,29.4-88.3
			S176.3,117.5,189.4,156.3z"/>
		<path fill="#81398A" d="M150.2,244c-0.8,4.1,2.8,9,5.5,9.1c0.7,0,0.7-0.3,3.2-1.1c2.8-0.9,3.7-0.7,4.5-1.5c0.5-0.5,0.9-1.3,1-3.7
			c0.2-4.5,0.3-7-1.1-8.3C160.4,235.9,151.3,238.4,150.2,244z"/>
		<path fill="#81398A" d="M152.9,252.9c0.1,1.5,1,3.4,2.4,3.7c1.4,0.3,1.9-1.3,4.7-2.4c2.6-1,3.7-0.2,4.8-1.3
			c1.4-1.5,1.3-4.6,0.2-5.1c-0.7-0.4-1.3,0.6-3.1,1.3c-3.9,1.5-6.6-0.7-8.2,1.1C152.8,251,152.9,252.3,152.9,252.9z"/>
	</g>
	<path fill="#9D649F" d="M102.1,115.6c-1.1-0.7-10,7.8-14.8,19.6c-6.8,16.7-3.3,34.1-1.8,34.2c0.3,0,0.5-0.6,5-17
		c2.1-7.5,3.1-11.3,4.4-15.3c0.9-2.6,1.9-5.6,3.4-9.7C102,117.1,102.5,115.9,102.1,115.6z"/>
	<path fill="#9D649F" d="M143,109.7c0.7-1.1,8.2,2.8,13.8,6.9c0.5,0.4,7.8,5.8,7.1,6.9c-0.6,1-7.3-1.4-12.9-5.4
		C146.7,115.1,142.4,110.6,143,109.7z"/>
</g>
<g>
	<g>
		<path fill="#3784C3" d="M245.9,195.2c4.2,34.4-14.2,64.8-41.1,68c-26.9,3.2-52.1-22.1-56.3-56.5c-4.2-34.4,14.2-64.8,41.1-68
			C216.5,135.5,241.7,160.8,245.9,195.2z"/>
		<path fill="#3784C3" d="M196.5,261c-1.4,3.2,0.8,7.9,3.1,8.4c0.6,0.1,0.7-0.1,3-0.3c2.6-0.2,3.2,0.1,4.1-0.5
			c0.6-0.4,1-0.9,1.5-2.9c1-3.7,1.5-5.8,0.5-7.1C206.7,256,198.5,256.6,196.5,261z"/>
		<path fill="#3784C3" d="M197.3,268.8c-0.2,1.3,0.2,3,1.3,3.5c1.1,0.5,1.8-0.8,4.5-1.2c2.4-0.4,3.2,0.5,4.4-0.3
			c1.5-1,1.9-3.6,1.1-4.2c-0.5-0.4-1.2,0.3-2.9,0.6c-3.6,0.6-5.5-1.7-7.2-0.5C197.5,267.2,197.3,268.4,197.3,268.8z"/>
	</g>
	<path fill="#62A7DC" d="M178.6,146.6c-0.8-0.8-10,4.7-16.2,13.7c-8.8,12.7-9,27.7-7.7,28c0.3,0.1,0.5-0.4,7.3-13.2
		c3.1-5.8,4.7-8.8,6.6-11.9c1.2-2,2.6-4.3,4.6-7.5C178.2,147.7,178.9,146.8,178.6,146.6z"/>
	<path fill="#62A7DC" d="M214.6,148.6c0.8-0.7,6.5,3.7,10.5,8.1c0.4,0.4,5.6,6.1,4.9,7c-0.7,0.7-6-2.4-10.1-6.6
		C216.8,153.8,213.9,149.3,214.6,148.6z"/>
</g>
<g>
	<g>
		<path fill="#C54842" d="M150.3,219.4c21.4,35,17.3,76.5-9,92.8s-65,1.2-86.4-33.8s-17.3-76.5,9-92.8S128.9,184.5,150.3,219.4z"/>
		<path fill="#C54842" d="M131.6,313.9c0.1,4.2,4.7,8.1,7.4,7.6c0.7-0.1,0.7-0.5,2.9-1.8c2.6-1.5,3.4-1.5,4-2.5
			c0.4-0.7,0.6-1.5,0.1-3.8c-0.8-4.4-1.3-6.9-3-7.8C139.7,303.6,131.5,308.2,131.6,313.9z"/>
		<path fill="#C54842" d="M136.2,321.9c0.4,1.4,1.7,3.1,3.1,3.1c1.4,0,1.5-1.7,4.1-3.4c2.3-1.6,3.6-1,4.4-2.4c1.1-1.8,0.2-4.7-0.9-5
			c-0.8-0.2-1.1,0.9-2.8,2c-3.4,2.4-6.6,0.9-7.8,2.9C135.7,320.1,136.1,321.4,136.2,321.9z"/>
	</g>
	<path fill="#CD6E6F" d="M56.3,199.5c-1.2-0.4-8,9.9-10.1,22.5c-2.9,17.9,4.4,34,5.9,33.8c0.3-0.1,0.3-0.7,1.1-17.7
		c0.3-7.8,0.5-11.7,0.9-16c0.3-2.8,0.6-5.9,1.1-10.3C56.5,200.9,56.7,199.6,56.3,199.5z"/>
	<path fill="#CD6E6F" d="M94.7,184.4c0.5-1.2,8.6,0.9,15,3.6c0.6,0.2,8.9,3.9,8.5,5.1c-0.3,1.1-7.4,0.3-13.7-2.3
		C99.6,188.9,94.3,185.4,94.7,184.4z"/>
</g>
<g>
	<g>
		<path fill="#F4E145" d="M135.5,292c23,24.9,27,58.9,9,75.8c-18,16.9-51.3,10.5-74.3-14.4s-27-58.9-9-75.8
			C79.2,260.6,112.5,267.1,135.5,292z"/>
		<path fill="#F4E145" d="M137,370.5c0.8,3.3,5.1,5.8,7.2,5c0.6-0.2,0.4-0.5,2-1.9c1.8-1.6,2.4-1.7,2.8-2.6c0.2-0.6,0.2-1.3-0.6-3.1
			c-1.4-3.4-2.2-5.4-3.7-5.9C141.7,361.1,135.9,366,137,370.5z"/>
		<path fill="#F4E145" d="M142.1,376.3c0.6,1.1,1.9,2.2,3,2c1.1-0.2,0.9-1.6,2.6-3.4c1.6-1.6,2.6-1.4,3.1-2.6
			c0.5-1.6-0.6-3.8-1.6-3.9c-0.6,0-0.7,0.9-1.8,2c-2.3,2.4-5.1,1.6-5.6,3.5C141.4,374.9,141.9,375.9,142.1,376.3z"/>
	</g>
	<path fill="#F6E877" d="M57.6,289.7c-1.1-0.2-4.7,9.1-4.1,19.5c0.8,14.8,9.4,26.7,10.5,26.3c0.2-0.1,0.1-0.6-2.2-14.4
		c-1.1-6.3-1.6-9.5-2-12.9c-0.3-2.3-0.5-4.8-0.9-8.4C57.9,290.9,57.9,289.8,57.6,289.7z"/>
	<path fill="#F6E877" d="M85.4,272c0.2-1,6.9-0.6,12.5,0.7c0.5,0.1,7.7,1.8,7.6,2.9c-0.1,0.9-5.8,1.3-11.3,0.2
		C90,274.9,85.2,272.9,85.4,272z"/>
</g>
<g>
	<g>
		<path fill="#84B04D" d="M307.3,258.4c1.9,36.4-19.2,66.9-47.1,68.2c-27.9,1.3-52-27.1-53.9-63.5s19.2-66.9,47.1-68.2
			S305.4,222.1,307.3,258.4z"/>
		<path fill="#84B04D" d="M251.8,323.6c-1.7,3.3,0.2,8.3,2.6,9.1c0.6,0.2,0.7-0.1,3.1-0.1c2.7-0.1,3.3,0.3,4.3-0.2
			c0.6-0.3,1.1-0.9,1.7-2.9c1.3-3.8,2-5.9,1-7.4C262.6,319.2,254.1,319.2,251.8,323.6z"/>
		<path fill="#84B04D" d="M252,331.9c-0.3,1.3,0,3.1,1.1,3.7c1.1,0.6,2-0.7,4.7-0.9c2.5-0.2,3.3,0.7,4.5,0c1.6-0.9,2.2-3.6,1.4-4.3
			c-0.5-0.5-1.3,0.2-3.1,0.4c-3.7,0.4-5.6-2.2-7.4-1.1C252.3,330.3,252.1,331.4,252,331.9z"/>
	</g>
	<path fill="#A5C37D" d="M241.4,202.4c-0.8-0.9-10.6,4.2-17.7,13.1c-10,12.6-11.2,28.3-9.9,28.8c0.3,0.1,0.5-0.4,8.5-13.3
		c3.6-5.9,5.5-8.9,7.6-12c1.4-2,3-4.3,5.3-7.5C240.9,203.6,241.7,202.7,241.4,202.4z"/>
	<path fill="#A5C37D" d="M278.4,207.3c0.9-0.7,6.4,4.4,10.3,9.3c0.3,0.4,5.4,6.9,4.5,7.7c-0.8,0.7-6-3-9.9-7.7
		C280.3,212.8,277.6,207.9,278.4,207.3z"/>
</g>
<g>
	<g>
		<path fill="#D88C30" d="M230.4,270.6c17,37.3,7.9,78-20.3,90.9c-28.2,12.9-64.7-6.9-81.7-44.2s-7.9-78,20.3-90.9
			S213.4,233.3,230.4,270.6z"/>
		<path fill="#D88C30" d="M200.3,361.9c-0.4,4.1,3.7,8.6,6.4,8.4c0.7-0.1,0.7-0.4,3.1-1.4c2.7-1.2,3.6-1.1,4.3-2
			c0.5-0.6,0.7-1.4,0.6-3.8c-0.3-4.5-0.4-7-2-8.1C209.6,352.7,200.8,356.2,200.3,361.9z"/>
		<path fill="#D88C30" d="M203.9,370.5c0.2,1.5,1.3,3.3,2.7,3.4c1.4,0.2,1.7-1.5,4.4-2.9c2.5-1.3,3.7-0.6,4.6-1.8
			c1.3-1.6,0.8-4.7-0.3-5.1c-0.7-0.3-1.2,0.7-3,1.7c-3.7,1.9-6.6,0-8.1,1.9C203.6,368.6,203.8,369.9,203.9,370.5z"/>
	</g>
	<path fill="#E2AC56" d="M139.4,239.1c-1.2-0.6-9.2,8.8-12.7,21c-5,17.4,0.2,34.3,1.7,34.2c0.3,0,0.4-0.6,3.2-17.4
		c1.3-7.7,1.9-11.6,2.9-15.7c0.6-2.7,1.3-5.7,2.4-10C139.4,240.6,139.8,239.3,139.4,239.1z"/>
	<path fill="#E2AC56" d="M179.4,229c0.6-1.1,8.4,1.9,14.4,5.5c0.5,0.3,8.3,5,7.8,6.2c-0.5,1.1-7.4-0.6-13.4-4
		C183.7,234,178.9,229.9,179.4,229z"/>
</g>
<path fill="none" stroke="#000000" stroke-miterlimit="10" d="M251.9,317.7C217.4,401,210.2,477,235.8,487.5"/>
<path fill="none" stroke="#000000" stroke-miterlimit="10" d="M232.8,340c-28.5,69.1-27.2,135.1,3,147.6"/>
<path fill="none" stroke="#000000" stroke-miterlimit="10" d="M288.5,374.4c-26.3,63.7-49.9,114.2-52.6,113.1"/>
<path fill="none" stroke="#000000" stroke-miterlimit="10" d="M345.9,382c-29.5,71.3-78.7,118.5-110.1,105.6"/>
<path fill="none" stroke="#000000" stroke-miterlimit="10" d="M324.1,354.3C291,434.4,251.5,494,235.8,487.5"/>
<g>
	<g>
		<path fill="#81398A" d="M404.9,206c-14.7,38.3-50.1,60.3-79,49.2s-40.4-51.1-25.7-89.4c14.7-38.3,50.1-60.3,79-49.2
			C408.1,127.8,419.6,167.8,404.9,206z"/>
		<path fill="#81398A" d="M318.8,248.5c-3.2,2.6-3.6,8.7-1.5,10.5c0.6,0.5,0.8,0.2,3.2,1.2c2.7,1.1,3.2,1.8,4.4,1.7
			c0.8-0.1,1.5-0.5,3.1-2.2c3-3.3,4.7-5.2,4.4-7.1C331.9,248.8,323.2,244.9,318.8,248.5z"/>
		<path fill="#81398A" d="M315.2,257.1c-0.9,1.2-1.4,3.2-0.5,4.3c0.9,1.1,2.3,0.2,5.2,1.1c2.7,0.9,3,2.2,4.6,2
			c2-0.2,3.9-2.7,3.4-3.8c-0.3-0.7-1.4-0.4-3.3-1c-4-1.3-4.7-4.7-7-4.4C316.3,255.6,315.5,256.7,315.2,257.1z"/>
	</g>
	<path fill="#9D649F" d="M363.7,119c-0.4-1.3-12.7-0.4-23.9,5.6c-15.9,8.6-24.3,24.2-23.2,25.2c0.2,0.2,0.7-0.1,14.7-9.9
		c6.4-4.5,9.6-6.7,13.2-9c2.3-1.5,5-3.1,8.8-5.3C362.6,120,363.8,119.4,363.7,119z"/>
	<path fill="#9D649F" d="M399,140.5c1.2-0.3,4.5,7.3,6.2,14.1c0.1,0.6,2.3,9.4,1.1,9.9c-1.1,0.4-4.7-5.7-6.5-12.4
		C398.4,147,397.9,140.8,399,140.5z"/>
</g>
<g>
	<g>
		<path fill="#3784C3" d="M423.7,272c-18.7,29.2-52.3,40.9-75,26.2c-22.7-14.7-26-50.3-7.3-79.4s52.3-40.9,75-26.2
			C439.1,207.3,442.4,242.8,423.7,272z"/>
		<path fill="#3784C3" d="M343.7,291.2c-3.2,1.6-4.5,6.6-3,8.5c0.4,0.5,0.6,0.3,2.5,1.6c2.1,1.5,2.5,2.1,3.5,2.2
			c0.7,0.1,1.4-0.1,3-1.3c3.1-2.2,4.8-3.5,4.9-5.1C354.7,293.8,348,289,343.7,291.2z"/>
		<path fill="#3784C3" d="M339.2,297.6c-1,0.8-1.7,2.4-1.2,3.5c0.5,1.1,1.9,0.6,4.2,1.9c2.1,1.2,2.2,2.4,3.5,2.6
			c1.8,0.2,3.7-1.5,3.5-2.5c-0.1-0.7-1.1-0.6-2.6-1.4c-3.1-1.8-3.2-4.8-5.2-5C340.4,296.6,339.6,297.4,339.2,297.6z"/>
	</g>
	<path fill="#62A7DC" d="M402.8,191.6c-0.1-1.1-10.7-2.7-21.2,0.2c-14.9,4.1-24.6,15.6-23.8,16.7c0.2,0.2,0.6,0,14.1-5.5
		c6.1-2.5,9.2-3.8,12.7-5c2.2-0.8,4.8-1.6,8.3-2.8C401.7,192.2,402.9,192,402.8,191.6z"/>
	<path fill="#62A7DC" d="M429.2,216.2c1.1,0,2.6,7,3,13c0,0.5,0.4,8.3-0.7,8.5c-1,0.1-3.1-5.7-3.5-11.5
		C427.7,221.5,428.3,216.2,429.2,216.2z"/>
</g>
<g>
	<g>
		<path fill="#C54842" d="M334.6,229.7c-5.8,40.6-35.5,70-66.2,65.7c-30.7-4.3-50.8-40.6-45-81.1s35.5-70,66.2-65.7
			C320.2,152.8,340.4,189.1,334.6,229.7z"/>
		<path fill="#C54842" d="M259.9,290.5c-2.6,3.3-1.6,9.2,0.9,10.6c0.7,0.4,0.8,0,3.4,0.5c2.9,0.5,3.6,1,4.7,0.6
			c0.7-0.2,1.4-0.8,2.5-2.9c2.2-3.9,3.4-6.1,2.7-7.9C272.7,287.8,263.4,286,259.9,290.5z"/>
		<path fill="#C54842" d="M258.3,299.6c-0.6,1.4-0.6,3.5,0.4,4.3c1.1,0.9,2.3-0.3,5.3-0.1c2.8,0.3,3.4,1.5,4.9,0.9
			c1.9-0.7,3.2-3.5,2.5-4.5c-0.5-0.6-1.4,0-3.4-0.2c-4.1-0.4-5.6-3.5-7.8-2.7C259.1,297.9,258.5,299.1,258.3,299.6z"/>
	</g>
	<path fill="#CD6E6F" d="M274.9,154.3c-0.7-1.1-12.5,2.5-22.1,10.9c-13.6,11.9-18.3,29-17,29.8c0.3,0.2,0.7-0.3,12.1-13
		c5.2-5.8,7.9-8.7,10.9-11.7c2-2,4.2-4.1,7.4-7.2C274.1,155.6,275.1,154.7,274.9,154.3z"/>
	<path fill="#CD6E6F" d="M314.1,167.3c1.1-0.6,6,6.1,9.2,12.3c0.3,0.6,4.4,8.7,3.3,9.4c-1,0.6-5.9-4.5-9.1-10.5
		C315,173.8,313.1,167.8,314.1,167.3z"/>
</g>
<g>
	<g>
		<path fill="#F4E145" d="M276.8,276.1c1.8,33.9-16.8,62.6-41.5,64.1s-46.2-24.7-48-58.5c-1.8-33.9,16.8-62.6,41.5-64.1
			C253.5,216,275,242.2,276.8,276.1z"/>
		<path fill="#F4E145" d="M228,337.5c-1.5,3.1,0.2,7.8,2.3,8.4c0.6,0.2,0.6-0.1,2.7-0.2c2.4-0.1,3,0.3,3.8-0.2
			c0.5-0.3,1-0.9,1.5-2.7c1.1-3.6,1.7-5.5,0.9-6.9C237.6,333.3,230,333.3,228,337.5z"/>
		<path fill="#F4E145" d="M228.2,345.2c-0.2,1.2,0.1,2.9,1,3.5c1,0.6,1.7-0.7,4.2-0.9c2.2-0.2,2.9,0.6,4,0c1.4-0.9,2-3.4,1.3-4
			c-0.5-0.4-1.1,0.2-2.7,0.4c-3.3,0.4-5-2-6.6-0.9C228.5,343.7,228.2,344.8,228.2,345.2z"/>
	</g>
	<path fill="#F6E877" d="M218.3,224.6c-0.7-0.8-9.4,4-15.6,12.4c-8.8,11.9-9.8,26.5-8.6,26.9c0.2,0.1,0.5-0.4,7.5-12.5
		c3.2-5.5,4.8-8.3,6.7-11.3c1.2-1.9,2.7-4,4.7-7C217.8,225.8,218.5,224.9,218.3,224.6z"/>
	<path fill="#F6E877" d="M251,228.8c0.8-0.7,5.7,4,9.1,8.5c0.3,0.4,4.8,6.3,4,7.1c-0.7,0.7-5.3-2.7-8.8-7.1
		C252.7,233.9,250.3,229.4,251,228.8z"/>
</g>
<g>
	<g>
		<path fill="#84B04D" d="M430.6,359.8c-21.7,29.2-57.5,39.2-79.8,22.4s-22.8-54.1-1-83.3c21.7-29.2,57.5-39.2,79.8-22.4
			S452.3,330.7,430.6,359.8z"/>
		<path fill="#84B04D" d="M346.2,374.7c-3.4,1.4-5.1,6.5-3.8,8.7c0.4,0.6,0.6,0.4,2.5,1.9c2.1,1.7,2.4,2.4,3.4,2.6
			c0.7,0.1,1.4,0,3.2-1.1c3.4-2.1,5.3-3.3,5.5-5C357.4,378.2,350.9,372.7,346.2,374.7z"/>
		<path fill="#84B04D" d="M341.1,381.1c-1.1,0.8-2,2.4-1.5,3.6c0.5,1.2,1.9,0.7,4.2,2.3c2.1,1.4,2,2.6,3.5,2.9
			c1.8,0.3,4-1.3,3.9-2.4c-0.1-0.7-1.1-0.7-2.6-1.7c-3.1-2.1-2.9-5.2-5-5.6C342.4,380.1,341.5,380.8,341.1,381.1z"/>
	</g>
	<path fill="#A5C37D" d="M415.6,274.7c-0.1-1.2-10.9-3.6-21.9-1.2c-15.8,3.4-26.7,14.7-26,15.8c0.1,0.2,0.7,0.1,15-4.8
		c6.5-2.2,9.9-3.4,13.5-4.4c2.4-0.7,5.1-1.4,8.9-2.4C414.4,275.3,415.6,275.1,415.6,274.7z"/>
	<path fill="#A5C37D" d="M440.9,302c1.1,0,2.2,7.4,2,13.7c0,0.6-0.2,8.7-1.4,8.8c-1,0.1-2.7-6.1-2.7-12.3
		C438.9,307.5,439.9,302,440.9,302z"/>
</g>
<g>
	<g>
		<path fill="#D88C30" d="M363.6,320.1c-10.7,39.6-43.7,65.1-73.6,57.1c-29.9-8-45.5-46.6-34.7-86.2s43.7-65.1,73.6-57.1
			C358.8,242,374.3,280.6,363.6,320.1z"/>
		<path fill="#D88C30" d="M282.2,371.2c-3,2.9-2.7,9-0.4,10.6c0.6,0.4,0.8,0.1,3.3,0.9c2.8,0.8,3.4,1.5,4.6,1.2
			c0.8-0.2,1.5-0.6,2.9-2.5c2.7-3.6,4.2-5.7,3.7-7.5C295.2,370.2,286.2,367.2,282.2,371.2z"/>
		<path fill="#D88C30" d="M279.5,380.1c-0.8,1.3-1,3.4-0.1,4.4c1,1,2.3-0.1,5.3,0.6c2.7,0.6,3.2,1.9,4.7,1.5c2-0.4,3.6-3.1,3-4.1
			c-0.4-0.7-1.4-0.2-3.4-0.6c-4.1-0.9-5.1-4.2-7.4-3.6C280.4,378.5,279.7,379.7,279.5,380.1z"/>
	</g>
	<path fill="#E2AC56" d="M313.6,237.9c-0.5-1.2-12.7,0.9-23.2,8.1c-15,10.2-21.7,26.5-20.5,27.5c0.3,0.2,0.7-0.2,13.6-11.4
		c5.9-5.1,8.9-7.7,12.2-10.3c2.2-1.7,4.7-3.6,8.2-6.2C312.7,239,313.8,238.3,313.6,237.9z"/>
	<path fill="#E2AC56" d="M350.9,255.6c1.2-0.5,5.2,6.8,7.6,13.4c0.2,0.6,3.3,9.1,2.1,9.7c-1,0.5-5.3-5.2-7.7-11.6
		C351,262.2,349.9,256,350.9,255.6z"/>
</g>
</svg>
